<?xml version="1.0" standalone="no"?>
<!DOCTYPE svg PUBLIC "-//W3C//DTD SVG 20010904//EN"
 "http://www.w3.org/TR/2001/REC-SVG-20010904/DTD/svg10.dtd">
<svg version="1.0" xmlns="http://www.w3.org/2000/svg"
 width="419.000000pt" height="419.000000pt" viewBox="0 0 419.000000 419.000000"
 preserveAspectRatio="xMidYMid meet">
<metadata>
Created by potrace 1.11, written by Peter Selinger 2001-2013
</metadata>
<g transform="translate(0.000000,419.000000) scale(0.100000,-0.100000)"
fill="#000000" stroke="none">
<path d="M2709 4097 c-191 -65 -354 -241 -438 -472 -108 -300 -88 -611 53
-823 98 -146 216 -216 366 -217 81 0 89 2 172 43 289 144 467 501 444 887 -8
131 -26 213 -64 297 -84 182 -254 309 -415 308 -28 0 -82 -11 -118 -23z"/>
<path d="M1179 4076 c-70 -28 -103 -51 -160 -113 -130 -139 -187 -348 -160
-592 40 -372 227 -653 513 -768 53 -22 73 -25 144 -21 67 4 94 10 147 36 121
60 222 199 269 371 42 151 26 395 -36 579 -129 377 -462 613 -717 508z"/>
<path d="M3692 2895 c-35 -8 -96 -30 -135 -49 -232 -115 -402 -370 -452 -680
-19 -114 -19 -172 0 -261 33 -155 128 -293 242 -351 52 -26 68 -29 153 -29 73
0 110 5 162 23 128 44 270 157 357 285 51 75 117 223 141 317 25 102 36 274
22 350 -36 193 -154 345 -303 391 -70 22 -100 23 -187 4z"/>
<path d="M295 2807 c-63 -21 -104 -45 -153 -90 -59 -55 -86 -99 -114 -188 -32
-101 -32 -315 0 -430 88 -325 311 -564 592 -635 204 -52 402 88 461 326 19 76
17 278 -4 362 -69 283 -253 517 -493 630 -59 28 -82 33 -159 35 -55 2 -105 -2
-130 -10z"/>
<path d="M1945 2003 c-273 -58 -521 -211 -689 -427 -143 -182 -281 -422 -360
-624 -56 -143 -106 -348 -106 -435 0 -136 64 -263 173 -343 82 -61 142 -79
257 -77 110 1 196 18 335 67 55 19 165 57 245 85 174 60 288 82 435 82 143 0
249 -26 495 -126 245 -98 262 -104 349 -115 136 -18 275 19 361 97 61 55 94
110 109 181 50 240 -91 574 -439 1037 -260 346 -521 545 -782 599 -97 20 -288
20 -383 -1z"/>
</g>
</svg>
